<?xml version="1.0" standalone="no"?>
<!DOCTYPE svg PUBLIC "-//W3C//DTD SVG 20010904//EN"
 "http://www.w3.org/TR/2001/REC-SVG-20010904/DTD/svg10.dtd">
<svg version="1.0" xmlns="http://www.w3.org/2000/svg"
 width="358.000000pt" height="95.000000pt" viewBox="0 0 358.000000 95.000000"
 preserveAspectRatio="xMidYMid meet">

<g transform="translate(0.000000,95.000000) scale(0.100000,-0.100000)"
fill="#000000" stroke="none">
<path d="M1163 702 c-19 -12 -29 -50 -48 -177 -19 -130 -15 -168 25 -233 58
-94 231 -90 313 7 28 33 38 76 57 236 16 128 13 150 -20 150 -36 0 -48 -33
-60 -170 -13 -139 -27 -177 -72 -205 -59 -36 -142 -18 -167 37 -16 36 -13 127
9 232 23 113 11 153 -37 123z"/>
<path d="M460 691 c-137 -42 -255 -182 -267 -319 -12 -133 81 -193 223 -144
100 35 254 145 269 193 13 39 -11 44 -47 9 -18 -17 -63 -52 -99 -76 -116 -76
-210 -102 -255 -70 -47 35 -5 185 76 266 42 42 109 79 143 80 17 0 17 -3 -4
-31 -25 -35 -18 -62 19 -67 24 -4 72 59 72 96 0 53 -62 83 -130 63z"/>
<path d="M1732 671 c-46 -15 -87 -33 -92 -41 -9 -17 -24 -203 -25 -305 0 -69
1 -70 27 -73 18 -2 30 3 36 15 6 10 13 83 17 161 9 165 13 173 99 193 67 15
101 10 101 -15 0 -25 -78 -86 -109 -86 -28 0 -46 -18 -46 -46 0 -27 31 -40 59
-25 52 28 131 -6 131 -56 0 -35 -78 -113 -113 -113 -14 0 -29 4 -32 10 -9 14
-48 13 -63 -2 -19 -19 -14 -56 9 -69 59 -31 186 19 237 95 44 65 44 117 1 156
-16 16 -38 32 -48 35 -16 5 -14 10 16 41 48 52 45 112 -8 139 -40 21 -102 17
-197 -14z"/>
<path d="M753 682 c-7 -4 -19 -58 -28 -122 -8 -63 -22 -150 -30 -193 -31 -163
-25 -170 124 -139 58 12 127 22 152 22 50 0 73 16 67 47 -6 32 -50 30 -255
-15 -31 -6 -30 13 9 214 26 134 29 166 18 179 -13 16 -38 19 -57 7z"/>
<path d="M2579 648 c-116 -83 -279 -235 -279 -260 0 -24 48 -29 123 -14 116
24 111 27 104 -50 -6 -82 -1 -103 29 -110 43 -11 53 8 47 97 l-6 81 69 -3 c61
-4 69 -2 72 15 6 28 -24 46 -75 46 -51 0 -52 2 -22 119 30 119 17 136 -62 79z
m-20 -141 l-12 -55 -65 -12 c-35 -6 -66 -9 -68 -8 -1 2 31 34 74 70 42 37 78
65 80 63 2 -2 -2 -28 -9 -58z"/>
<path d="M3084 631 c-2 -2 -4 -15 -4 -28 0 -38 36 -48 125 -34 42 7 78 11 80
9 2 -2 -28 -28 -68 -59 -55 -42 -72 -60 -72 -79 0 -22 4 -25 30 -22 79 9 175
6 186 -5 7 -7 9 -22 5 -37 -13 -53 -151 -92 -229 -67 -47 16 -77 7 -77 -23 0
-34 22 -47 89 -53 89 -8 192 26 249 82 39 40 43 48 40 86 -4 55 -36 79 -115
88 l-58 7 56 32 c74 42 97 68 82 90 -9 15 -30 17 -162 17 -84 0 -154 -2 -157
-4z"/>
<path d="M2742 194 c-31 -23 -1 -29 144 -29 130 0 144 2 144 18 0 19 3 19
-158 22 -78 1 -118 -2 -130 -11z"/>
</g>
</svg>
