<?xml version="1.0" standalone="no"?>
<!DOCTYPE svg PUBLIC "-//W3C//DTD SVG 20010904//EN"
 "http://www.w3.org/TR/2001/REC-SVG-20010904/DTD/svg10.dtd">
<svg version="1.0" xmlns="http://www.w3.org/2000/svg"
 width="512.000000pt" height="512.000000pt" viewBox="0 0 512.000000 512.000000"
 preserveAspectRatio="xMidYMid meet">

<g transform="translate(0.000000,512.000000) scale(0.100000,-0.100000)"
fill="#000000" stroke="none">
<path d="M6 4202 c-4 -10 50 -229 119 -486 69 -257 125 -473 125 -481 0 -35
-29 -45 -133 -45 l-102 0 178 -178 177 -177 253 -420 c138 -230 260 -423 269
-429 13 -8 32 -3 78 19 80 38 95 56 82 93 -5 16 -141 351 -301 746 -190 466
-291 727 -289 744 3 26 6 27 67 30 50 2 68 -1 84 -15 31 -27 887 -1322 908
-1373 10 -25 53 -166 95 -315 41 -148 85 -284 96 -300 21 -32 835 -608 885
-627 23 -9 104 5 447 77 254 53 431 85 450 82 17 -3 122 -59 233 -126 110 -67
211 -121 223 -121 13 0 47 24 83 58 101 95 91 92 263 92 84 0 159 3 168 6 24
9 20 37 -14 105 -21 40 -29 68 -24 82 3 12 142 159 309 327 l302 305 21 80
c58 221 66 263 53 279 -12 14 -47 16 -257 16 -238 0 -243 0 -268 -23 -30 -26
-176 -254 -176 -274 0 -29 -43 -138 -70 -178 -87 -126 -228 -206 -425 -241
-95 -17 -293 -18 -367 -3 -187 39 -346 202 -423 433 -67 200 -91 406 -82 701
6 183 5 203 -12 230 -38 63 -494 681 -517 703 -24 21 -33 22 -192 22 -92 0
-173 4 -180 8 -7 5 -83 96 -170 203 -86 106 -168 199 -182 206 -18 9 -83 13
-221 13 -184 0 -198 -1 -223 -21 -23 -18 -26 -27 -26 -85 l0 -64 -173 0 c-146
0 -176 3 -197 17 -14 9 -97 74 -185 144 -88 69 -178 138 -199 153 l-39 26
-258 0 c-241 0 -258 -1 -263 -18z"/>
</g>
</svg>
